<svg width="23" height="15" viewBox="0 0 23 15" fill="none" xmlns="http://www.w3.org/2000/svg">
<path d="M2.96729 15.0003C2.59501 15.0003 2.22272 14.8633 1.93635 14.5886C1.36003 14.0315 1.35573 13.127 1.92346 12.5629C1.94279 12.5398 3.04962 11.2474 1.65213 8.48138C-0.711164 3.80432 1.81321 1.22498 1.92346 1.11593C2.49263 0.553232 3.42048 0.54764 3.9968 1.10125C4.56382 1.64858 4.57885 2.53422 4.03618 3.09972C3.95241 3.19618 2.90715 4.49564 4.28103 7.21408C6.64288 11.8897 4.11851 14.467 4.00969 14.5753C3.72403 14.8577 3.3453 15.0003 2.96729 15.0003Z" fill="#DA5C3E"/>
<path d="M11.4748 15.0003C11.1018 15.0003 10.7275 14.8605 10.4428 14.5809C9.8742 14.0203 9.8742 13.115 10.4443 12.5551C10.4649 12.5328 11.5758 11.2458 10.1703 8.48676C7.78472 3.80395 10.3339 1.21684 10.4443 1.10988C11.0143 0.54996 11.9352 0.54996 12.5053 1.10988C13.0668 1.65932 13.0753 2.54709 12.5316 3.10841C12.4469 3.20558 11.4007 4.49949 12.7793 7.20683C15.1655 11.8924 12.6163 14.4754 12.5053 14.5823C12.2213 14.8605 11.8477 15.0003 11.4748 15.0003Z" fill="#DA5C3E"/>
<path d="M20.3699 15.0003C19.997 15.0003 19.6225 14.8605 19.3378 14.5809C18.7698 14.0203 18.7698 13.115 19.3392 12.5551C19.3599 12.5327 20.471 11.2457 19.0652 8.4866C16.682 3.80368 19.2275 1.2179 19.3378 1.10955C19.908 0.549607 20.8305 0.551006 21.4007 1.10815C21.9623 1.659 21.9708 2.54679 21.4284 3.10673C21.3451 3.2011 20.2959 4.49504 21.6747 7.20525C24.0614 11.891 21.5117 14.474 21.4007 14.5809C21.1166 14.8605 20.7437 15.0003 20.3699 15.0003Z" fill="#DA5C3E"/>
</svg>
