<svg width="179" height="25" viewBox="0 0 179 25" fill="none" xmlns="http://www.w3.org/2000/svg">
<path d="M14.3641 22.9826H9.52229V17.9794H4.84184V22.9826H0V8.45708H4.84184V13.4603H9.52229V8.45708H14.3641V22.9826Z" fill="white"/>
<path d="M19.2927 21.2073C17.8294 19.744 17.0978 17.9148 17.0978 15.7198C17.0978 13.5249 17.8294 11.6957 19.2927 10.2324C20.756 8.79063 22.7143 8.06974 25.1675 8.06974C27.6207 8.06974 29.5682 8.79063 31.01 10.2324C32.4948 11.6742 33.2372 13.5034 33.2372 15.7198C33.2372 17.9363 32.4948 19.7655 31.01 21.2073C29.5682 22.6491 27.6207 23.37 25.1675 23.37C22.7143 23.37 20.756 22.6491 19.2927 21.2073ZM22.2624 15.7198C22.2624 16.6237 22.5314 17.3768 23.0694 17.9794C23.6289 18.5604 24.3282 18.8509 25.1675 18.8509C26.0283 18.8509 26.7276 18.5712 27.2656 18.0117C27.8036 17.4306 28.0726 16.6667 28.0726 15.7198C28.0726 14.816 27.7928 14.0736 27.2333 13.4926C26.6954 12.8901 26.0067 12.5888 25.1675 12.5888C24.3282 12.5888 23.6289 12.8793 23.0694 13.4603C22.5314 14.0198 22.2624 14.773 22.2624 15.7198Z" fill="white"/>
<path d="M35.9671 22.9826V8.45708C36.1392 8.45708 37.0215 8.4248 38.6139 8.36025C40.2279 8.29569 41.4222 8.26341 42.1969 8.26341C46.7805 8.26341 49.0723 9.55457 49.0723 12.1369C49.0723 12.9546 48.8141 13.6648 48.2976 14.2673C47.8027 14.8483 47.2109 15.1926 46.5223 15.3002V15.3648C47.4261 15.623 48.1255 16.0426 48.6204 16.6237C49.1369 17.1832 49.3951 17.8503 49.3951 18.625C49.3951 21.6592 47.0065 23.1763 42.2292 23.1763C41.5836 23.1763 40.4754 23.144 38.9044 23.0794C37.3551 23.0149 36.3759 22.9826 35.9671 22.9826ZM42.3583 17.1724H40.8089V19.1737C41.6482 19.2598 42.3045 19.3028 42.7779 19.3028C43.2083 19.3028 43.5634 19.206 43.8431 19.0123C44.1229 18.7971 44.2628 18.5496 44.2628 18.2699C44.2628 17.5382 43.6279 17.1724 42.3583 17.1724ZM42.6488 12.1369C41.8096 12.1369 41.1963 12.1692 40.8089 12.2337V14.2673H42.4229C43.4343 14.2673 43.94 13.9015 43.94 13.1698C43.94 12.8901 43.8216 12.6533 43.5849 12.4597C43.3482 12.2445 43.0362 12.1369 42.6488 12.1369Z" fill="white"/>
<path d="M53.8413 21.2073C52.378 19.744 51.6463 17.9148 51.6463 15.7198C51.6463 13.5249 52.378 11.6957 53.8413 10.2324C55.3046 8.79063 57.2629 8.06974 59.716 8.06974C62.1693 8.06974 64.1167 8.79063 65.5585 10.2324C67.0434 11.6742 67.7858 13.5034 67.7858 15.7198C67.7858 17.9363 67.0434 19.7655 65.5585 21.2073C64.1167 22.6491 62.1693 23.37 59.716 23.37C57.2629 23.37 55.3046 22.6491 53.8413 21.2073ZM56.8109 15.7198C56.8109 16.6237 57.0799 17.3768 57.6179 17.9794C58.1774 18.5604 58.8768 18.8509 59.716 18.8509C60.5768 18.8509 61.2762 18.5712 61.8142 18.0117C62.3522 17.4306 62.6212 16.6667 62.6212 15.7198C62.6212 14.816 62.3414 14.0736 61.7819 13.4926C61.2439 12.8901 60.5553 12.5888 59.716 12.5888C58.8768 12.5888 58.1774 12.8793 57.6179 13.4603C57.0799 14.0198 56.8109 14.773 56.8109 15.7198Z" fill="white"/>
<path d="M81.1031 0L83.6209 4.00259C82.9753 4.66969 82.3082 5.14311 81.6196 5.42286C81.2753 5.55198 80.5113 5.78869 79.3278 6.133C78.1657 6.45579 77.3588 6.73554 76.9069 6.97225C75.4651 7.74695 74.6258 9.02734 74.3891 10.8134H74.4537C74.9056 10.2324 75.5404 9.74824 76.3581 9.36089C77.1758 8.97355 78.0259 8.77987 78.9081 8.77987C80.8234 8.77987 82.3728 9.42545 83.5563 10.7166C84.7399 11.9647 85.3317 13.6755 85.3317 15.849C85.3317 17.9794 84.6215 19.7655 83.2012 21.2073C81.781 22.6491 79.9088 23.37 77.5847 23.37C75.067 23.37 73.0979 22.5307 71.6777 20.8522C70.2574 19.1737 69.5473 16.9034 69.5473 14.0413C69.5473 7.90834 71.4087 4.01335 75.1315 2.35636C75.8632 2.03357 76.6701 1.77534 77.5524 1.58167C78.5423 1.34496 79.274 1.12976 79.7474 0.936089C80.2423 0.720896 80.6943 0.408866 81.1031 0ZM74.7119 15.0743C74.7334 16.1502 74.9916 17.054 75.4866 17.7857C75.9815 18.4958 76.6379 18.8509 77.4556 18.8509C78.5746 18.937 79.3708 18.4958 79.8442 17.5275C80.3177 16.5591 80.3284 15.5907 79.8765 14.6224C79.4461 13.654 78.7037 13.2128 77.6493 13.2989C76.229 13.2989 75.2499 13.8907 74.7119 15.0743Z" fill="white"/>
<path d="M89.623 13.0084L88.4287 9.49001C89.9781 8.54316 91.7749 8.06974 93.8193 8.06974C95.9282 8.06974 97.456 8.57544 98.4029 9.58685C99.3712 10.5983 99.8554 12.1476 99.8554 14.235V22.9826H95.6592V21.6592C94.949 22.6706 93.6794 23.1763 91.8502 23.1763C90.473 23.1763 89.3648 22.7674 88.5255 21.9497C87.6863 21.1319 87.2666 20.0129 87.2666 18.5927C87.2666 17.0648 87.7401 15.8812 88.6869 15.042C89.6553 14.2027 90.9249 13.7831 92.4958 13.7831C93.7224 13.7831 94.6693 14.0521 95.3364 14.5901C95.444 12.9331 94.7769 12.1046 93.3351 12.1046C92.3452 12.1046 91.1078 12.4059 89.623 13.0084ZM93.4965 19.1414C94.3572 19.1414 94.9705 18.8939 95.3364 18.399V17.4952C94.8845 17.1724 94.2712 17.011 93.4965 17.011C93.0876 17.011 92.7541 17.1078 92.4958 17.3015C92.2376 17.4952 92.1085 17.7642 92.1085 18.1085C92.1085 18.4313 92.2376 18.6895 92.4958 18.8832C92.7541 19.0553 93.0876 19.1414 93.4965 19.1414Z" fill="white"/>
<path d="M117.442 22.9826H112.601V17.9794H107.92V22.9826H103.078V8.45708H107.92V13.4603H112.601V8.45708H117.442V22.9826Z" fill="white"/>
<path d="M130.989 15.3971L125.825 22.9826H120.983V8.45708H125.825V16.0426L130.989 8.45708H135.831V22.9826H130.989V15.3971Z" fill="white"/>
<path d="M152.588 25.0003C152.098 25.0003 151.608 24.82 151.231 24.4586C150.473 23.7255 150.467 22.5354 151.214 21.7931C151.24 21.7628 152.696 20.0622 150.857 16.4228C147.748 10.2687 151.069 6.87489 151.214 6.73141C151.963 5.99102 153.184 5.98366 153.942 6.7121C154.688 7.43226 154.708 8.59757 153.994 9.34165C153.884 9.46857 152.509 11.1784 154.316 14.7553C157.424 20.9074 154.102 24.2985 153.959 24.4411C153.583 24.8127 153.085 25.0003 152.588 25.0003Z" fill="#DA5C3E"/>
<path d="M163.782 25.0003C163.291 25.0003 162.798 24.8163 162.424 24.4484C161.676 23.7108 161.676 22.5197 162.426 21.7829C162.453 21.7535 163.915 20.0602 162.065 16.4298C158.926 10.2683 162.281 6.86418 162.426 6.72345C163.176 5.98671 164.388 5.98671 165.138 6.72345C165.876 7.4464 165.888 8.61451 165.172 9.35309C165.061 9.48094 163.684 11.1834 165.498 14.7457C168.638 20.911 165.284 24.3095 165.138 24.4503C164.764 24.8163 164.272 25.0003 163.782 25.0003Z" fill="#DA5C3E"/>
<path d="M175.486 25.0003C174.995 25.0003 174.502 24.8163 174.128 24.4484C173.38 23.7107 173.38 22.5196 174.13 21.7828C174.157 21.7534 175.619 20.0601 173.769 16.4296C170.633 10.2679 173.983 6.86557 174.128 6.72301C174.878 5.98625 176.092 5.98809 176.842 6.72117C177.581 7.44597 177.592 8.61411 176.879 9.35086C176.769 9.47504 175.388 11.1776 177.203 14.7436C180.343 20.909 176.988 24.3077 176.842 24.4484C176.468 24.8163 175.978 25.0003 175.486 25.0003Z" fill="#DA5C3E"/>
</svg>
