<?xml version="1.0" encoding="utf-8"?><svg viewBox="0 0 151 30" xmlns="http://www.w3.org/2000/svg" xmlns:xlink="http://www.w3.org/1999/xlink"><style>:root>svg{display:none}:root>svg:target{display:block}</style><svg viewBox="0 0 8 7" id="icon-arrow-down" xmlns="http://www.w3.org/2000/svg"><g clip-path="url(#aclip0_731_120)"><path d="M3.502 5.495a.489.489 0 01-.346-.143l-3.01-3.01a.49.49 0 11.693-.694l2.663 2.664 2.664-2.663a.49.49 0 01.693.693l-3.01 3.01a.489.489 0 01-.347.143z"/></g><defs><clipPath id="aclip0_731_120"><path transform="translate(.002)" d="M0 0h7v7H0z"/></clipPath></defs></svg><svg viewBox="0 0 61 8" id="icon-arrow-long" xmlns="http://www.w3.org/2000/svg"><path d="M60.354 4.354a.5.5 0 000-.708L57.172.464a.5.5 0 10-.707.708L59.293 4l-2.828 2.828a.5.5 0 10.707.708l3.182-3.182zM0 4.5h60v-1H0v1z"/></svg><svg viewBox="0 0 151 8" id="icon-arrow-right" xmlns="http://www.w3.org/2000/svg"><path d="M150.354 4.354a.5.5 0 000-.708L147.172.464a.501.501 0 00-.708.708L149.293 4l-2.829 2.828a.5.5 0 00.708.708l3.182-3.182zM0 4.5h150v-1H0v1z"/></svg><svg viewBox="0 0 17 17" id="icon-email" xmlns="http://www.w3.org/2000/svg"><path d="M8.533 6.973c-.824 0-1.494.67-1.494 1.494S7.71 9.96 8.533 9.96s1.494-.67 1.494-1.494-.67-1.494-1.494-1.494z"/><path d="M8.467 0C3.798 0 0 3.798 0 8.467 0 13.135 3.798 17 8.467 17 13.135 17 17 13.136 17 8.467S13.136 0 8.467 0zm3.553 10.957a1.988 1.988 0 01-1.628-.85 2.475 2.475 0 01-1.859.85 2.493 2.493 0 01-2.49-2.49 2.493 2.493 0 012.49-2.49c.563 0 1.077.194 1.494.51v-.012a.498.498 0 11.996 0v2.49a.997.997 0 001.992 0c0-3.333-2.205-4.98-4.482-4.98a4.487 4.487 0 00-4.482 4.482 4.487 4.487 0 004.482 4.482c.996 0 1.938-.319 2.725-.923.525-.401 1.127.39.607.79a5.425 5.425 0 01-3.332 1.13 5.485 5.485 0 01-5.478-5.48 5.485 5.485 0 015.478-5.478c2.753 0 5.479 2.03 5.479 5.977a1.994 1.994 0 01-1.992 1.992z"/></svg><svg viewBox="0 0 30 30" id="icon-insta" xmlns="http://www.w3.org/2000/svg"><path d="M25.605 0H4.395A4.4 4.4 0 000 4.395v21.21A4.4 4.4 0 004.395 30h21.21A4.4 4.4 0 0030 25.605V4.395A4.4 4.4 0 0025.605 0zM15.06 22.852c-4.362 0-7.91-3.549-7.91-7.91 0-4.362 3.548-7.91 7.91-7.91 4.361 0 7.91 3.548 7.91 7.91 0 4.361-3.549 7.91-7.91 7.91zm8.789-14.063a2.64 2.64 0 01-2.637-2.637 2.64 2.64 0 012.637-2.636 2.64 2.64 0 012.636 2.636 2.64 2.64 0 01-2.636 2.637z"/><path d="M23.848 5.273a.88.88 0 100 1.76.88.88 0 000-1.76zM15.059 8.79a6.16 6.16 0 00-6.153 6.151 6.16 6.16 0 006.153 6.153 6.16 6.16 0 006.152-6.153 6.16 6.16 0 00-6.152-6.152z"/></svg><svg viewBox="0 0 15 15" id="icon-phone" xmlns="http://www.w3.org/2000/svg"><path d="M11.404 9.923c-.49-.484-1.102-.484-1.589 0-.371.368-.743.736-1.108 1.11-.1.104-.184.126-.306.057-.24-.131-.496-.237-.727-.38-1.077-.678-1.98-1.549-2.778-2.53-.397-.486-.75-1.007-.996-1.594-.05-.119-.04-.197.056-.294.372-.358.734-.727 1.099-1.095.509-.512.509-1.111-.003-1.626-.29-.294-.58-.58-.871-.874-.3-.3-.596-.603-.899-.9-.49-.477-1.102-.477-1.589.004C1.32 2.169.96 2.547.58 2.909c-.353.334-.53.743-.568 1.22-.06.778.131 1.511.4 2.226.549 1.48 1.385 2.794 2.4 3.998a14.855 14.855 0 004.919 3.849c.861.418 1.754.74 2.725.793.668.037 1.248-.131 1.714-.653.318-.355.677-.68 1.014-1.02.5-.506.502-1.118.006-1.617-.593-.596-1.189-1.19-1.785-1.782zM10.807 7.435l1.152-.196A5.148 5.148 0 0010.52 4.46a5.12 5.12 0 00-2.934-1.463l-.162 1.158a3.972 3.972 0 012.272 1.133c.587.586.97 1.33 1.111 2.147zM12.609 2.428A8.493 8.493 0 007.739 0l-.162 1.158a7.364 7.364 0 014.208 2.098 7.358 7.358 0 012.063 3.98L15 7.038a8.555 8.555 0 00-2.391-4.61z"/></svg><svg viewBox="0 0 19 27" id="icon-play" xmlns="http://www.w3.org/2000/svg"><path d="M17.689 12.133L3.567 1.33a1.632 1.632 0 00-1.775-.147c-.572.304-.93.924-.93 1.593v21.598c0 .676.358 1.293.93 1.598a1.637 1.637 0 001.774-.155L17.69 15.024c.445-.345.706-.879.706-1.446a1.81 1.81 0 00-.706-1.445z"/></svg><svg viewBox="0 0 30 30" id="icon-vk" xmlns="http://www.w3.org/2000/svg"><path d="M28.088 0H1.916A1.915 1.915 0 000 1.914v26.172C0 29.143.857 30 1.916 30h26.17A1.915 1.915 0 0030 28.086V1.914A1.91 1.91 0 0028.088 0zm-3.203 18.28c.549.56 1.738 1.497 1.522 2.452-.198.876-1.507.556-2.777.607-1.45.062-2.31.094-3.182-.607-.41-.333-.652-.726-1.046-1.167-.358-.398-.808-1.111-1.422-1.084-1.103.055-.758 1.592-1.15 2.64-6.13.966-8.593-2.822-10.765-6.497-1.052-1.78-2.572-5.603-2.572-5.603l4.336-.015s1.39 2.53 1.759 3.182c.313.554.658.995 1.014 1.49.298.41.77 1.215 1.287 1.15.84-.108.993-3.369.472-4.461-.207-.443-.705-.597-1.22-.747.174-1.097 4.864-1.326 5.621-.475 1.101 1.237-.762 4.679.746 5.683 2.117-1.11 3.925-5.755 3.925-5.755l5.076.032s-.794 2.511-1.626 3.624c-.485.653-2.093 2.105-2.03 3.182.05.854 1.36 1.683 2.032 2.37z"/></svg><svg viewBox="0 0 18 18" id="icon-whatsup" xmlns="http://www.w3.org/2000/svg"><path d="M15.475 2.525A8.566 8.566 0 009.377 0 8.566 8.566 0 003.28 2.525 8.566 8.566 0 00.755 8.623c0 1.459.37 2.892 1.07 4.162L0 18l5.215-1.825a8.62 8.62 0 004.162 1.07 8.566 8.566 0 006.098-2.525A8.566 8.566 0 0018 8.623a8.566 8.566 0 00-2.525-6.098zm-1.835 9.3l-.995.996c-.825.825-3.165-.178-5.226-2.24C5.357 8.52 4.354 6.18 5.179 5.355l.995-.995a.528.528 0 01.747 0l1.244 1.244a.528.528 0 010 .747l-.746.746a7.325 7.325 0 003.484 3.484l.746-.746a.528.528 0 01.747 0l1.244 1.244a.528.528 0 010 .747z"/></svg><svg viewBox="0 0 30 30" id="icon-workplace" xmlns="http://www.w3.org/2000/svg"><g clip-path="url(#jclip0_731_140)"><path d="M29 9.497h-1v-1.5c0-.552-.448-1-1-1h-6c-.552 0-1 .448-1 1v1.5h-1.604a4.725 4.725 0 00-.799-.913 5.367 5.367 0 00-.017-.112c.21-.002.42.02.626.064a.641.641 0 00.7-.31.753.753 0 00-.108-.872 5.12 5.12 0 00-2.205-1.45 5.863 5.863 0 00-.049-.076c.197-.086.403-.147.614-.184a.639.639 0 00.537-.549.753.753 0 00-.436-.768 5.16 5.16 0 00-2.673-.502l-.037-.025c.155-.167.331-.313.525-.433a.636.636 0 00.285-.71.753.753 0 00-.695-.546 5.144 5.144 0 00-2.734.578c.08-.23.193-.446.335-.643a.636.636 0 00-.01-.762.758.758 0 00-.852-.242c-.899.3-1.697.842-2.306 1.567a2.532 2.532 0 01.058-.73.638.638 0 00-.3-.697.76.76 0 00-.88.096 5.087 5.087 0 00-1.525 2.32 2.505 2.505 0 01-.234-.7.64.64 0 00-.548-.53.758.758 0 00-.773.428 5 5 0 00-.508 2.706 2.547 2.547 0 01-.49-.56.642.642 0 00-.715-.276.753.753 0 00-.542.689 4.99 4.99 0 00.582 2.684 2.595 2.595 0 01-.668-.335.642.642 0 00-.768.02.753.753 0 00-.232.847c.116.321.261.631.435.926H1a1 1 0 00-1 1v2.5a1 1 0 001 1h1.5v14a1 1 0 001 1H6a1 1 0 001-1v-.668l7.996-3.366L23 27.329v.668a1 1 0 001 1h2.5a1 1 0 001-1v-14H29a1 1 0 001-1v-2.5a1 1 0 00-1-1zm-2 .498v1.002H25.31a1.973 1.973 0 000-3H27v1.998zm-3-1.498a1 1 0 110 2 1 1 0 010-2zm-3-.5h1.691a1.974 1.974 0 000 3H21v-3zm-18.167.966c.311.111.636.181.965.21a.496.496 0 00.539-.43 4.29 4.29 0 01.076-.404.5.5 0 00-.08-.407 3.702 3.702 0 01-.67-1.734c.244.218.513.404.803.554a.5.5 0 00.661-.193c.07-.123.148-.242.231-.356a.5.5 0 00.087-.406 3.694 3.694 0 01.069-1.836c.131.279.298.54.494.777a.5.5 0 00.689.079c.128-.098.262-.193.4-.278a.5.5 0 00.228-.326c.122-.594.386-1.15.77-1.62.012.281.057.56.133.829a.5.5 0 00.616.346c.181-.05.364-.09.549-.12a.5.5 0 00.325-.204c.336-.472.776-.86 1.287-1.136-.087.236-.15.481-.186.73a.5.5 0 00.442.57c.206.02.41.056.61.106a.503.503 0 00.377-.056 3.91 3.91 0 011.554-.522 3.733 3.733 0 00-.409.534.5.5 0 00.181.704c.202.112.396.237.583.373a.499.499 0 00.36.092 3.933 3.933 0 011.547.11 3.757 3.757 0 00-.533.304.5.5 0 00-.11.721c.151.194.29.397.415.61a.5.5 0 00.296.226c.48.135.93.36 1.325.665a3.786 3.786 0 00-.579.071.5.5 0 00-.385.62c.064.241.11.488.138.736a.5.5 0 00.188.337c.095.081.187.167.273.258h-1.134a5.511 5.511 0 00-10.975 0H3.209a3.987 3.987 0 01-.376-.534zm10.116.534a2.5 2.5 0 00-4.899 0H5.99a4.51 4.51 0 018.962 0H12.95zm-1.041 0H9.092a1.491 1.491 0 012.816 0zM3.5 27.997v-14H6v14H3.5zm5-14v1a.5.5 0 101 0v-1h11v1a.5.5 0 101 0v-1H23v2.5H7v-2.5h1.5zm7.794 5.577l4.932-2.077H23v2.016l-3.424 1.441-3.282-1.38zm-4.94-2.077h7.296l-3.645 1.536-3.651-1.536zM23 20.597v1.797l-2.135-.897 2.135-.9zm-16 .001l2.136.9-2.136.9v-1.8zm0 5.646v-2.762l3.427-1.441 3.28 1.38L7 26.243zm8.204-3.279l-.031-.013-4.55-1.914a.452.452 0 00-.038-.014L7 19.513v-2.016h1.774l6.05 2.544c.013.005.025.012.038.016l4.517 1.9a.491.491 0 00.056.023L23 23.48v2.764l-7.796-3.279zM26.5 27.997H24v-14H26.5v14zm2.499-15H1v-2.5h19v.5a1 1 0 001 1h6a1 1 0 001-1v-.5h1v2.5z"/></g><defs><clipPath id="jclip0_731_140"><path d="M0 0h30v30H0z"/></clipPath></defs></svg></svg>