<svg width="30" height="30" viewBox="0 0 30 30" fill="none" xmlns="http://www.w3.org/2000/svg">
<g clip-path="url(#clip0_731_140)">
<path d="M29 9.49718H28V7.99709C27.9993 7.44502 27.5521 6.99756 27 6.9971H20.9999C20.4478 6.99756 20.0006 7.44502 19.9999 7.99709V9.49718H18.3959C18.17 9.15958 17.9015 8.85288 17.5971 8.58394C17.5919 8.5464 17.5859 8.50887 17.58 8.47202C17.7903 8.46973 18.0004 8.49124 18.2064 8.53565C18.4827 8.59813 18.7672 8.47202 18.9063 8.22528C19.0606 7.9417 19.0169 7.59105 18.7976 7.35393C18.2021 6.68651 17.4417 6.18663 16.5926 5.90442C16.5768 5.87901 16.5605 5.85361 16.5443 5.82843C16.7406 5.74237 16.9466 5.68057 17.1579 5.64418C17.4394 5.60138 17.6585 5.37731 17.6951 5.09509C17.7306 4.77168 17.5548 4.46224 17.2588 4.32742C16.4287 3.92391 15.5058 3.75041 14.586 3.82503L14.5493 3.80008C14.7041 3.633 14.8803 3.48743 15.0737 3.36726C15.3165 3.22055 15.4328 2.93056 15.3587 2.65659C15.2694 2.34393 14.9892 2.12398 14.6642 2.11116C13.7171 2.04753 12.7707 2.24757 11.93 2.68863C12.0103 2.45952 12.1232 2.243 12.2651 2.04593C12.4315 1.81796 12.4276 1.50737 12.2557 1.28352C12.0531 1.02763 11.7096 0.930359 11.4029 1.0416C10.5043 1.34143 9.70619 1.88388 9.09668 2.60921C9.08066 2.36385 9.10011 2.1178 9.15504 1.87816C9.21844 1.6051 9.09645 1.32266 8.85406 1.18213C8.57048 1.02283 8.21686 1.06174 7.9747 1.27849C7.26105 1.89555 6.73302 2.6987 6.44966 3.59844C6.33751 3.37802 6.25854 3.14205 6.21552 2.89851C6.1702 2.62019 5.94795 2.40436 5.66826 2.36728C5.34531 2.32951 5.03426 2.50186 4.8951 2.79575C4.47578 3.63254 4.29977 4.57027 4.38698 5.50205C4.19746 5.34046 4.03267 5.15186 3.89786 4.94243C3.74657 4.70256 3.45566 4.59041 3.18237 4.6664C2.87292 4.75612 2.6548 5.03284 2.63992 5.35465C2.57881 6.28642 2.78023 7.2166 3.22151 8.03943C2.98393 7.96024 2.75917 7.84717 2.55409 7.70366C2.32178 7.53932 2.00912 7.54756 1.78596 7.7238C1.53488 7.92728 1.44127 8.26808 1.55388 8.57112C1.67015 8.89247 1.81549 9.20238 1.98853 9.49718H0.999985C0.447922 9.49764 0.000457764 9.9451 0 10.4972V12.997C0.000457764 13.5491 0.447922 13.9965 0.999985 13.997H2.50008V27.997C2.50053 28.5491 2.948 28.9965 3.50006 28.997H5.99991C6.55197 28.9965 6.99944 28.5491 6.99989 27.997V27.3291L14.9963 23.9627L23.0001 27.3294V27.997C23.0006 28.5491 23.448 28.9965 24.0001 28.997H26.4999C27.052 28.9965 27.4995 28.5491 27.4999 27.997V13.997H29C29.5521 13.9965 29.9995 13.5491 30 12.997V10.4972C29.9995 9.9451 29.5521 9.49764 29 9.49718ZM27.0005 9.99477L27 9.99706L27.0005 9.99958L27.0007 10.997H25.3088C25.7474 10.6221 26.0001 10.0742 26.0001 9.49718C26.0001 8.92017 25.7474 8.372 25.3088 7.99709H27L27.0005 9.99477ZM24.0001 8.49719C24.5524 8.49719 25.0001 8.94489 25.0001 9.49718C25.0001 10.0495 24.5524 10.4972 24.0001 10.4972C23.4478 10.4972 23.0001 10.0495 23.0001 9.49718C23.0006 8.94512 23.448 8.49765 24.0001 8.49719ZM20.9999 7.99709H22.6911C22.2526 8.372 21.9999 8.92017 21.9999 9.49718C21.9999 10.0742 22.2526 10.6221 22.6911 10.997H20.9999V7.99709ZM2.83333 8.9632C3.14438 9.07421 3.4687 9.14447 3.79784 9.17262C4.0638 9.1978 4.30183 9.00829 4.33685 8.74347C4.35585 8.60637 4.38103 8.4727 4.41284 8.33881C4.44626 8.19782 4.41673 8.04927 4.33228 7.93163C3.96561 7.41985 3.73581 6.82315 3.66394 6.19785C3.90656 6.4162 4.17618 6.60228 4.4664 6.75151C4.70261 6.87374 4.99352 6.78928 5.12741 6.55925C5.19791 6.43634 5.27504 6.31732 5.35835 6.20288C5.44487 6.08661 5.47646 5.93852 5.44533 5.79708C5.31326 5.18917 5.33684 4.55768 5.51399 3.96121C5.64537 4.23976 5.81154 4.50046 6.00838 4.73758C6.17935 4.94449 6.48331 4.97928 6.69685 4.81655C6.82503 4.71881 6.95938 4.62406 7.0974 4.53914C7.21504 4.46636 7.29744 4.34825 7.32468 4.21275C7.4469 3.61881 7.71126 3.06331 8.09509 2.59387C8.10699 2.87402 8.15163 3.15212 8.22762 3.42197C8.26332 3.54991 8.34846 3.6584 8.46405 3.72341C8.57986 3.78841 8.71674 3.80466 8.84445 3.7685C9.02504 3.71883 9.20792 3.67877 9.39262 3.64856C9.52377 3.62636 9.64096 3.55266 9.71764 3.44394C10.0539 2.97176 10.4942 2.58312 11.0046 2.30823C10.9177 2.54443 10.8556 2.78911 10.8192 3.03813C10.7996 3.17294 10.8357 3.30959 10.9193 3.41716C11.0026 3.52451 11.1262 3.5934 11.2614 3.60782C11.4668 3.62888 11.6705 3.66412 11.871 3.71356C11.9991 3.74538 12.1346 3.72524 12.2482 3.65794C12.7233 3.37619 13.2527 3.19812 13.8016 3.13587C13.6496 3.30135 13.513 3.4801 13.3932 3.67008C13.32 3.78635 13.2978 3.9278 13.3321 4.06101C13.3662 4.19399 13.4537 4.30728 13.5741 4.37389C13.7759 4.48604 13.9705 4.61055 14.157 4.74674C14.2605 4.82227 14.3891 4.85523 14.5161 4.83852C15.0341 4.77214 15.5603 4.80945 16.0638 4.94861C15.8784 5.03536 15.7004 5.13721 15.5315 5.25302C15.4177 5.33107 15.341 5.45284 15.3202 5.58948C15.2991 5.72612 15.3358 5.86528 15.4209 5.974C15.5724 6.16763 15.7111 6.37111 15.8359 6.58306C15.9018 6.69429 16.008 6.77577 16.1325 6.81034C16.6127 6.94469 17.0622 7.1706 17.4568 7.47547C17.2623 7.48393 17.0689 7.50774 16.878 7.54596C16.7425 7.57297 16.6244 7.65491 16.5514 7.77233C16.4783 7.88951 16.4573 8.03188 16.493 8.16532C16.5566 8.40724 16.6029 8.65375 16.6308 8.90232C16.6461 9.03507 16.7139 9.15615 16.8189 9.23854C16.9144 9.32002 17.0055 9.40631 17.092 9.49718H15.9576C15.6933 6.66408 13.3157 4.49794 10.4702 4.49794C7.62474 4.49794 5.24712 6.66408 4.98276 9.49718H3.20869C3.06908 9.32964 2.94365 9.15111 2.83333 8.9632ZM12.9494 9.49718C12.7119 8.33309 11.6879 7.49721 10.5 7.49721C9.31206 7.49721 8.28827 8.33309 8.05046 9.49718H5.98869C6.24825 7.2182 8.17657 5.49701 10.47 5.49701C12.7636 5.49701 14.6919 7.2182 14.9515 9.49718H12.9494ZM11.9078 9.49718H9.0921C9.30107 8.8982 9.86572 8.49697 10.5 8.49697C11.1342 8.49697 11.6991 8.8982 11.9078 9.49718ZM3.50006 27.997V13.997H5.99991V27.997H3.50006ZM8.49998 13.997V14.997C8.49998 15.2732 8.72383 15.4971 9.00009 15.4971C9.27612 15.4971 9.49997 15.2732 9.49997 14.997V13.997H20.5V14.997C20.5 15.2732 20.7239 15.4971 20.9999 15.4971C21.2762 15.4971 21.5 15.2732 21.5 14.997V13.997H23.0001V16.4971H6.99989V13.997H8.49998ZM16.2941 19.5744L21.2258 17.4971H23.0001V19.5128L19.576 20.9545L16.2941 19.5744ZM11.3537 17.4971H18.6502L15.0053 19.0326L11.3537 17.4971ZM23.0001 20.5977V22.3944L20.8651 21.4965L23.0001 20.5977ZM6.99989 20.5982L9.13628 21.4988L6.99989 22.3972V20.5982ZM6.99989 26.244V23.4816L10.4274 22.0408L13.7068 23.4203L6.99989 26.244ZM15.2039 22.965C15.1934 22.9605 15.1836 22.9561 15.1728 22.952L10.6236 21.0385C10.6112 21.0333 10.5981 21.0285 10.5851 21.0244L6.99989 19.5128V17.4971H8.77441L14.8233 20.0406C14.8366 20.0457 14.8487 20.0532 14.8624 20.0571L19.3792 21.9566C19.3973 21.9655 19.4158 21.9733 19.4348 21.9799L23.0001 23.4791V26.2442L15.2039 22.965ZM26.5009 27.997H24.0001V13.997H26.4999L26.5009 27.997ZM29 12.997H0.999985V10.4972H19.9999V10.997C20.0006 11.5491 20.4478 11.9966 20.9999 11.997H27C27.5521 11.9966 27.9993 11.5491 28 10.997V10.4972H29V12.997Z" fill="#DAD0AB"/>
</g>
<defs>
<clipPath id="clip0_731_140">
<rect width="30" height="30" fill="white"/>
</clipPath>
</defs>
</svg>
