<svg width="17" height="17" viewBox="0 0 17 17" fill="none" xmlns="http://www.w3.org/2000/svg">
<path d="M8.5332 6.97266C7.7093 6.97266 7.03906 7.64289 7.03906 8.4668C7.03906 9.2907 7.7093 9.96094 8.5332 9.96094C9.35711 9.96094 10.0273 9.2907 10.0273 8.4668C10.0273 7.64289 9.35711 6.97266 8.5332 6.97266Z" fill="#4F4F4F"/>
<path d="M8.4668 0C3.79811 0 0 3.79811 0 8.4668C0 13.1355 3.79811 17 8.4668 17C13.1355 17 17 13.1355 17 8.4668C17 3.79811 13.1355 0 8.4668 0ZM12.0195 10.957C11.3464 10.957 10.7528 10.6197 10.392 10.1072C9.93537 10.624 9.27543 10.957 8.5332 10.957C7.16015 10.957 6.04297 9.83985 6.04297 8.4668C6.04297 7.09375 7.16015 5.97656 8.5332 5.97656C9.09593 5.97656 9.60985 6.1713 10.0273 6.48733V6.47461C10.0273 6.19932 10.2501 5.97656 10.5254 5.97656C10.8007 5.97656 11.0234 6.19932 11.0234 6.47461C11.0234 7.58227 11.0234 7.85669 11.0234 8.96484C11.0234 9.51396 11.4704 9.96094 12.0195 9.96094C12.5686 9.96094 13.0156 9.51396 13.0156 8.96484C13.0156 5.63155 10.8099 3.98438 8.5332 3.98438C6.06146 3.98438 4.05078 5.99506 4.05078 8.4668C4.05078 10.9385 6.06146 12.9492 8.5332 12.9492C9.5293 12.9492 10.4714 12.6302 11.2579 12.0261C11.7832 11.625 12.3848 12.4167 11.8649 12.8159C10.9023 13.5547 9.7506 13.9453 8.5332 13.9453C5.51235 13.9453 3.05469 11.4877 3.05469 8.4668C3.05469 5.44594 5.51235 2.98828 8.5332 2.98828C11.2856 2.98828 14.0117 5.01815 14.0117 8.96484C14.0117 10.0636 13.1183 10.957 12.0195 10.957Z" fill="#4F4F4F"/>
</svg>
